HIERARCHY
ROOT Pelvis
{
	OFFSET 0.000000 0.941512 0.000000
	CHANNELS 6 Xposition Yposition Zposition Zrotation Yrotation Xrotation 
	JOINT Pelvis_L_Hip
	{
		OFFSET 0.000000 0.000000 0.000000
		CHANNELS 3 Zrotation Yrotation Xrotation
		JOINT L_Hip
		{
			OFFSET 0.062321 -0.080322 -0.016990
			CHANNELS 3 Zrotation Yrotation Xrotation
			JOINT L_Knee
			{
				OFFSET 0.093051 -0.381305 -0.029784
				CHANNELS 3 Zrotation Yrotation Xrotation
				JOINT L_Ankle
				{
					OFFSET -0.010371 -0.431000 -0.033614
					CHANNELS 3 Zrotation Yrotation Xrotation
					End Site #name: L_Foot
					{
						OFFSET 0.069299 -0.038670 0.119418
					}
				}
			}
		}
	}
	JOINT Pelvis_R_Hip
	{
		OFFSET 0.000000 0.000000 0.000000
		CHANNELS 3 Zrotation Yrotation Xrotation
		JOINT R_Hip
		{
			OFFSET -0.055334 -0.094904 -0.002373
			CHANNELS 3 Zrotation Yrotation Xrotation
			JOINT R_Knee
			{
				OFFSET -0.064207 -0.384370 -0.019592
				CHANNELS 3 Zrotation Yrotation Xrotation
				JOINT R_Ankle
				{
					OFFSET 0.025418 -0.419734 -0.065953
					CHANNELS 3 Zrotation Yrotation Xrotation
					End Site #name: R_Foot
					{
						OFFSET -0.057233 -0.039888 0.132134
					}
				}
			}
		}
	}
	JOINT Pelvis_Spine1
	{
		OFFSET 0.000000 0.000000 0.000000
		CHANNELS 3 Zrotation Yrotation Xrotation
		JOINT Spine1
		{
			OFFSET -0.005562 0.124093 -0.043360
			CHANNELS 3 Zrotation Yrotation Xrotation
			JOINT Spine2
			{
				OFFSET 0.012244 0.139499 0.029894
				CHANNELS 3 Zrotation Yrotation Xrotation
				JOINT Spine3
				{
					OFFSET -0.002556 0.056561 0.009225
					CHANNELS 3 Zrotation Yrotation Xrotation
					JOINT Spine3_Neck
					{
						OFFSET 0.000000 0.000000 0.000000
						CHANNELS 3 Zrotation Yrotation Xrotation
						JOINT Neck
						{
							OFFSET -0.005205 0.217920 -0.024551
							CHANNELS 3 Zrotation Yrotation Xrotation
							End Site #name: Head
							{
								OFFSET 0.002365 0.091850 0.046637
							}
						}
					}
					JOINT Spine3_L_Collar
					{
						OFFSET 0.000000 0.000000 0.000000
						CHANNELS 3 Zrotation Yrotation Xrotation
						JOINT L_Collar
						{
							OFFSET 0.072225 0.116603 -0.009480
							CHANNELS 3 Zrotation Yrotation Xrotation
							JOINT L_Shoulder
							{
								OFFSET 0.115937 -0.058643 -0.021018
								CHANNELS 3 Zrotation Yrotation Xrotation
								JOINT L_Elbow
								{
									OFFSET 0.021994 -0.254722 -0.024492
									CHANNELS 3 Zrotation Yrotation Xrotation
									End Site #name: L_Wrist
									{
										OFFSET 0.048810 -0.240214 0.103329
									}
								}
							}
						}
					}
					JOINT Spine3_R_Collar
					{
						OFFSET 0.000000 0.000000 0.000000
						CHANNELS 3 Zrotation Yrotation Xrotation
						JOINT R_Collar
						{
							OFFSET -0.073372 0.120704 -0.024611
							CHANNELS 3 Zrotation Yrotation Xrotation
							JOINT R_Shoulder
							{
								OFFSET -0.108089 -0.054969 -0.020504
								CHANNELS 3 Zrotation Yrotation Xrotation
								JOINT R_Elbow
								{
									OFFSET -0.033684 -0.260739 0.009889
									CHANNELS 3 Zrotation Yrotation Xrotation
									End Site #name: R_Wrist
									{
										OFFSET -0.067980 -0.232763 0.118463
									}
								}
							}
						}
					}
				}
			}
		}
	}
}
MOTION
Frames: 17
Frame Time: 0.041667
0.000000 0.949426 0.000000 -3.353877 -3.429161 3.720555 0.000000 0.000000 0.000000 -1.651290 -0.806583 -3.645484 5.304942 -0.494069 0.898023 -3.895816 -10.735753 0.960912 0.000000 0.000000 0.000000 3.201622 0.084110 -1.420892 -3.310063 0.220560 -3.215617 2.940128 6.146558 2.225590 0.000000 0.000000 0.000000 5.324588 -0.806805 -2.834229 -1.807133 0.001939 -4.940674 2.261701 2.627496 5.453780 0.000000 0.000000 0.000000 -5.961514 3.234133 3.358816 0.000000 0.000000 0.000000 25.651771 0.956690 6.051323 -16.605497 2.583081 3.460024 -1.166567 -0.955812 -2.096151 0.000000 0.000000 0.000000 -30.283238 5.468985 1.946652 17.958095 -4.234941 16.291656 -7.378790 -0.313824 -15.268504 
-0.000003 0.949340 -0.000159 -3.394184 -3.420500 3.773912 0.000000 0.000000 0.000000 -1.594340 -0.824862 -3.707385 5.295115 -0.492843 0.892463 -3.917003 -10.755997 0.985140 0.000000 0.000000 0.000000 3.253439 0.092103 -1.475217 -3.325959 0.221668 -3.226392 2.945208 6.137298 2.241563 0.000000 0.000000 0.000000 5.426606 -0.817365 -2.907820 -1.909553 0.009259 -5.023604 2.295606 2.631442 5.590488 0.000000 0.000000 0.000000 -5.984865 3.241834 3.201251 0.000000 0.000000 0.000000 25.782088 0.928709 6.061719 -16.792016 2.600376 3.407516 -1.128479 -0.940924 -2.106691 0.000000 0.000000 0.000000 -30.354233 5.526689 1.906641 18.117923 -4.252319 16.271316 -7.448221 -0.362161 -15.276764 
0.000016 0.949343 -0.000273 -3.393630 -3.416686 3.780681 0.000000 0.000000 0.000000 -1.593023 -0.826594 -3.714112 5.294448 -0.491747 0.878126 -3.926583 -10.770961 0.993128 0.000000 0.000000 0.000000 3.253274 0.093107 -1.480400 -3.327388 0.220400 -3.242333 2.949064 6.132212 2.252305 0.000000 0.000000 0.000000 5.435489 -0.819122 -2.907723 -1.915589 0.009659 -5.028374 2.295529 2.635251 5.593193 0.000000 0.000000 0.000000 -5.999524 3.248745 3.174144 0.000000 0.000000 0.000000 25.791014 0.937188 6.070944 -16.829498 2.604019 3.398055 -1.128172 -0.939888 -2.102896 0.000000 0.000000 0.000000 -30.355412 5.539714 1.895683 18.154326 -4.250038 16.247692 -7.461736 -0.373624 -15.268673 
0.000062 0.949355 -0.000370 -3.395665 -3.416350 3.780724 0.000000 0.000000 0.000000 -1.589994 -0.830171 -3.727719 5.290492 -0.492284 0.891531 -3.928708 -10.776747 0.993612 0.000000 0.000000 0.000000 3.254818 0.094488 -1.487762 -3.331430 0.220889 -3.242129 2.950935 6.128011 2.258456 0.000000 0.000000 0.000000 5.445510 -0.822908 -2.894432 -1.911687 0.008868 -5.034942 2.294425 2.638848 5.594675 0.000000 0.000000 0.000000 -5.999376 3.248878 3.179068 0.000000 0.000000 0.000000 25.782325 0.940095 6.072952 -16.847701 2.609125 3.411325 -1.160735 -0.956249 -2.108842 0.000000 0.000000 0.000000 -30.363221 5.550246 1.886186 18.164252 -4.245000 16.227940 -7.457023 -0.367428 -15.271420 
0.000105 0.949363 -0.000409 -3.393501 -3.416928 3.773008 0.000000 0.000000 0.000000 -1.595519 -0.830402 -3.729568 5.290895 -0.493253 0.904662 -3.927685 -10.777322 0.991775 0.000000 0.000000 0.000000 3.251535 0.093873 -1.483746 -3.334194 0.221301 -3.241983 2.953936 6.130096 2.263300 0.000000 0.000000 0.000000 5.450588 -0.825215 -2.883808 -1.908962 0.007897 -5.045088 2.301087 2.648180 5.601355 0.000000 0.000000 0.000000 -5.989783 3.245212 3.221100 0.000000 0.000000 0.000000 25.782493 0.944971 6.077967 -16.854974 2.613327 3.421420 -1.166156 -0.957136 -2.102433 0.000000 0.000000 0.000000 -30.381371 5.560555 1.877819 18.151415 -4.245834 16.234101 -7.446476 -0.356782 -15.284117 
0.000148 0.949367 -0.000419 -3.388809 -3.413335 3.771910 0.000000 0.000000 0.000000 -1.603954 -0.831610 -3.735902 5.290479 -0.493848 0.913648 -3.928699 -10.776396 0.993850 0.000000 0.000000 0.000000 3.246239 0.093850 -1.482218 -3.337349 0.221587 -3.243578 2.953933 6.126770 2.265450 0.000000 0.000000 0.000000 5.456872 -0.826109 -2.886480 -1.902280 0.006636 -5.053995 2.301123 2.655906 5.605067 0.000000 0.000000 0.000000 -5.988230 3.246159 3.261778 0.000000 0.000000 0.000000 25.789991 0.954714 6.088971 -16.858135 2.615651 3.428747 -1.177045 -0.959309 -2.088147 0.000000 0.000000 0.000000 -30.402477 5.557149 1.880959 18.129334 -4.246657 16.246532 -7.447402 -0.361943 -15.276656 
0.000168 0.949372 -0.000406 -3.382163 -3.406885 3.768463 0.000000 0.000000 0.000000 -1.611244 -0.832464 -3.740380 5.286021 -0.494263 0.925091 -3.930347 -10.778174 0.995555 0.000000 0.000000 0.000000 3.240601 0.092414 -1.473400 -3.341131 0.221338 -3.251580 2.951646 6.119643 2.265345 0.000000 0.000000 0.000000 5.466770 -0.826959 -2.894121 -1.899700 0.006128 -5.057247 2.296132 2.665844 5.605794 0.000000 0.000000 0.000000 -6.006383 3.257747 3.303259 0.000000 0.000000 0.000000 25.800322 0.953221 6.092908 -16.848245 2.615459 3.433281 -1.140892 -0.937521 -2.065737 0.000000 0.000000 0.000000 -30.428958 5.574914 1.868363 18.120797 -4.256719 16.284612 -7.437640 -0.356936 -15.267387 
0.000175 0.949386 -0.000398 -3.369833 -3.402676 3.761638 0.000000 0.000000 0.000000 -1.618231 -0.832037 -3.740900 5.276186 -0.493796 0.931853 -3.927558 -10.782063 0.989402 0.000000 0.000000 0.000000 3.226528 0.092073 -1.468076 -3.339645 0.221145 -3.251496 2.948416 6.114889 2.261891 0.000000 0.000000 0.000000 5.474170 -0.827368 -2.901464 -1.903291 0.006144 -5.064082 2.285747 2.683141 5.617118 0.000000 0.000000 0.000000 -6.035949 3.276077 3.353118 0.000000 0.000000 0.000000 25.803098 0.952452 6.097893 -16.811500 2.606826 3.420704 -1.162948 -0.949694 -2.074957 0.000000 0.000000 0.000000 -30.458716 5.595275 1.850305 18.129324 -4.273895 16.338914 -7.421445 -0.339643 -15.286576 
0.000185 0.949393 -0.000390 -3.361074 -3.399168 3.757604 0.000000 0.000000 0.000000 -1.630770 -0.832013 -3.742381 5.276848 -0.494618 0.943821 -3.923912 -10.785182 0.981596 0.000000 0.000000 0.000000 3.216959 0.092684 -1.468680 -3.339649 0.222070 -3.241891 2.944570 6.111839 2.256356 0.000000 0.000000 0.000000 5.482248 -0.828740 -2.902113 -1.913244 0.007308 -5.063092 2.273328 2.691682 5.626862 0.000000 0.000000 0.000000 -6.059666 3.291032 3.396708 0.000000 0.000000 0.000000 25.805471 0.953128 6.101374 -16.797357 2.597081 3.386730 -1.151015 -0.948932 -2.096394 0.000000 0.000000 0.000000 -30.478774 5.605987 1.841432 18.135692 -4.280475 16.357314 -7.419914 -0.335898 -15.301313 
0.000199 0.949421 -0.000412 -3.351291 -3.396255 3.760141 0.000000 0.000000 0.000000 -1.647524 -0.835201 -3.757250 5.283218 -0.496491 0.961012 -3.918837 -10.782057 0.975155 0.000000 0.000000 0.000000 3.208862 0.095861 -1.483000 -3.346215 0.224611 -3.222955 2.943669 6.111810 2.254661 0.000000 0.000000 0.000000 5.498476 -0.831925 -2.902388 -1.934552 0.009181 -5.074271 2.246779 2.702432 5.644206 0.000000 0.000000 0.000000 -6.088468 3.309750 3.455653 0.000000 0.000000 0.000000 25.809495 0.961417 6.110939 -16.801462 2.585403 3.333427 -1.136553 -0.955994 -2.156677 0.000000 0.000000 0.000000 -30.512629 5.615908 1.834910 18.157993 -4.283908 16.357308 -7.396690 -0.316328 -15.314634 
0.000188 0.949451 -0.000444 -3.348645 -3.397062 3.770431 0.000000 0.000000 0.000000 -1.646997 -0.840023 -3.777037 5.284459 -0.497336 0.972276 -3.911259 -10.774767 0.966785 0.000000 0.000000 0.000000 3.209900 0.099414 -1.501508 -3.353410 0.226334 -3.213879 2.947422 6.114805 2.260198 0.000000 0.000000 0.000000 5.511314 -0.835152 -2.897714 -1.958510 0.010052 -5.107091 2.227218 2.713588 5.659484 0.000000 0.000000 0.000000 -6.116590 3.326987 3.491816 0.000000 0.000000 0.000000 25.817917 0.973804 6.125426 -16.824282 2.579974 3.295427 -1.070408 -0.937411 -2.213067 0.000000 0.000000 0.000000 -30.552786 5.626035 1.830591 18.174542 -4.284078 16.350402 -7.371375 -0.296193 -15.328406 
0.000128 0.949465 -0.000519 -3.358601 -3.410632 3.796043 0.000000 0.000000 0.000000 -1.646743 -0.847529 -3.805341 5.304361 -0.499514 0.975412 -3.892320 -10.756061 0.945895 0.000000 0.000000 0.000000 3.224559 0.106073 -1.539791 -3.356958 0.227173 -3.208877 2.958216 6.125259 2.274773 0.000000 0.000000 0.000000 5.513356 -0.837196 -2.887974 -1.976762 0.009457 -5.155101 2.226309 2.723387 5.669038 0.000000 0.000000 0.000000 -6.151994 3.346455 3.481876 0.000000 0.000000 0.000000 25.864409 0.969065 6.133469 -16.898166 2.587144 3.281540 -1.073503 -0.948226 -2.254616 0.000000 0.000000 0.000000 -30.611592 5.649264 1.820531 18.204538 -4.276699 16.312492 -7.378577 -0.302444 -15.328050 
0.000043 0.949496 -0.000554 -3.372009 -3.427547 3.812313 0.000000 0.000000 0.000000 -1.631906 -0.852400 -3.822207 5.313370 -0.500674 0.980537 -3.884531 -10.738088 0.942273 0.000000 0.000000 0.000000 3.240782 0.110835 -1.568695 -3.353055 0.227611 -3.197431 2.965880 6.136616 2.282515 0.000000 0.000000 0.000000 5.493846 -0.835984 -2.870553 -1.984515 0.008667 -5.185684 2.240143 2.727569 5.663268 0.000000 0.000000 0.000000 -6.157052 3.347109 3.429834 0.000000 0.000000 0.000000 25.903755 0.945664 6.122129 -16.939439 2.593422 3.283115 -1.078523 -0.944813 -2.229464 0.000000 0.000000 0.000000 -30.644273 5.686529 1.793521 18.208958 -4.267638 16.281544 -7.389563 -0.307891 -15.332978 
-0.000017 0.949518 -0.000540 -3.380082 -3.434493 3.821027 0.000000 0.000000 0.000000 -1.627271 -0.853532 -3.825051 5.321891 -0.501059 0.973542 -3.890889 -10.726161 0.958173 0.000000 0.000000 0.000000 3.252088 0.110010 -1.567378 -3.350818 0.225347 -3.219602 2.975635 6.143366 2.297581 0.000000 0.000000 0.000000 5.471473 -0.833745 -2.855537 -1.990778 0.008338 -5.203932 2.250509 2.735565 5.648801 0.000000 0.000000 0.000000 -6.151265 3.342482 3.406798 0.000000 0.000000 0.000000 25.926204 0.930191 6.114980 -16.941118 2.591374 3.275105 -1.126218 -0.963448 -2.213224 0.000000 0.000000 0.000000 -30.662156 5.721211 1.765227 18.211863 -4.261173 16.258176 -7.399790 -0.315525 -15.330515 
-0.000039 0.949524 -0.000470 -3.382428 -3.430816 3.831871 0.000000 0.000000 0.000000 -1.623121 -0.853302 -3.823761 5.322216 -0.499710 0.954858 -3.905154 -10.726779 0.980359 0.000000 0.000000 0.000000 3.254787 0.109666 -1.566551 -3.347935 0.223557 -3.235204 2.977583 6.140577 2.303162 0.000000 0.000000 0.000000 5.455997 -0.830419 -2.858301 -1.995061 0.007748 -5.221543 2.258129 2.748362 5.641140 0.000000 0.000000 0.000000 -6.161892 3.348265 3.411391 0.000000 0.000000 0.000000 25.932302 0.923847 6.114919 -16.932133 2.582178 3.243841 -1.132514 -0.963983 -2.204611 0.000000 0.000000 0.000000 -30.664361 5.737943 1.746676 18.200165 -4.258796 16.257639 -7.400602 -0.316067 -15.334686 
-0.000012 0.949531 -0.000353 -3.374877 -3.417763 3.837847 0.000000 0.000000 0.000000 -1.630091 -0.852240 -3.821512 5.319441 -0.498641 0.944885 -3.917176 -10.739133 0.993286 0.000000 0.000000 0.000000 3.248893 0.109150 -1.562515 -3.351901 0.223670 -3.240783 2.973393 6.130180 2.301763 0.000000 0.000000 0.000000 5.449790 -0.828403 -2.864087 -2.000542 0.007422 -5.237624 2.256984 2.761074 5.640928 0.000000 0.000000 0.000000 -6.189908 3.363799 3.417594 0.000000 0.000000 0.000000 25.941196 0.921235 6.118722 -16.934657 2.574305 3.209506 -1.156217 -0.977880 -2.218185 0.000000 0.000000 0.000000 -30.672156 5.750219 1.731914 18.201499 -4.259201 16.258700 -7.382598 -0.304281 -15.323938 
0.000049 0.949534 -0.000221 -3.365053 -3.399001 3.846924 0.000000 0.000000 0.000000 -1.644144 -0.853041 -3.827397 5.319921 -0.498475 0.942499 -3.925750 -10.755250 0.999051 0.000000 0.000000 0.000000 3.239730 0.109251 -1.560907 -3.358891 0.224429 -3.242497 2.967412 6.116512 2.298706 0.000000 0.000000 0.000000 5.454822 -0.827836 -2.875728 -2.004096 0.006964 -5.252456 2.252658 2.769976 5.643802 0.000000 0.000000 0.000000 -6.217734 3.378249 3.403038 0.000000 0.000000 0.000000 25.951400 0.911696 6.117957 -16.954032 2.572964 3.192871 -1.153414 -0.982329 -2.245002 0.000000 0.000000 0.000000 -30.695327 5.759507 1.722519 18.209922 -4.261561 16.263660 -7.374332 -0.303537 -15.313496 
